<mxfile host="app.diagrams.net" modified="2024-03-19T07:42:39.438Z" agent="Mozilla/5.0 (Windows NT 10.0; Win64; x64) AppleWebKit/537.36 (KHTML, like Gecko) Chrome/122.0.0.0 Safari/537.36" etag="fxX3q3t1T8yKSU4cLTIc" version="24.0.7" type="github">
  <diagram name="第 1 页" id="C-Ax64bLbnxOnGkyuHRc">
    <mxGraphModel dx="1064" dy="538" grid="1" gridSize="10" guides="1" tooltips="1" connect="1" arrows="1" fold="1" page="1" pageScale="1" pageWidth="827" pageHeight="1169" math="0" shadow="0">
      <root>
        <mxCell id="0" />
        <mxCell id="1" parent="0" />
        <mxCell id="qg5v3E2Mh4NsVr7laVS9-30" value="&lt;b style=&quot;font-size: 18px;&quot;&gt;Scale&amp;nbsp;&lt;/b&gt;&lt;b style=&quot;font-size: 18px; background-color: initial;&quot;&gt;Invariant Feature Transform&lt;/b&gt;" style="swimlane;whiteSpace=wrap;html=1;startSize=40;" parent="1" vertex="1">
          <mxGeometry x="80" y="80" width="490" height="720" as="geometry" />
        </mxCell>
        <mxCell id="qg5v3E2Mh4NsVr7laVS9-17" style="edgeStyle=elbowEdgeStyle;rounded=0;orthogonalLoop=1;jettySize=auto;html=1;exitX=0.5;exitY=1;exitDx=0;exitDy=0;entryX=0.5;entryY=0;entryDx=0;entryDy=0;" parent="qg5v3E2Mh4NsVr7laVS9-30" source="qg5v3E2Mh4NsVr7laVS9-1" target="qg5v3E2Mh4NsVr7laVS9-4" edge="1">
          <mxGeometry relative="1" as="geometry" />
        </mxCell>
        <mxCell id="qg5v3E2Mh4NsVr7laVS9-1" value="Scale-invariant interest points from scale-space extrema" style="rounded=0;whiteSpace=wrap;html=1;" parent="qg5v3E2Mh4NsVr7laVS9-30" vertex="1">
          <mxGeometry x="60" y="70" width="400" height="40" as="geometry" />
        </mxCell>
        <mxCell id="qg5v3E2Mh4NsVr7laVS9-28" value="&lt;b&gt;&lt;font style=&quot;font-size: 14px;&quot; face=&quot;Helvetica&quot;&gt;Matching of&lt;/font&gt;&lt;/b&gt;&lt;b style=&quot;background-color: initial;&quot;&gt;&lt;font style=&quot;font-size: 14px;&quot; face=&quot;Helvetica&quot;&gt;&amp;nbsp;local image descriptors&lt;/font&gt;&lt;/b&gt;" style="swimlane;horizontal=0;whiteSpace=wrap;html=1;startSize=30;" parent="qg5v3E2Mh4NsVr7laVS9-30" vertex="1">
          <mxGeometry x="20" y="440" width="450" height="180" as="geometry">
            <mxRectangle x="200" y="730" width="40" height="140" as="alternateBounds" />
          </mxGeometry>
        </mxCell>
        <mxCell id="qg5v3E2Mh4NsVr7laVS9-10" value="Nearest neighbour matching of local image descriptors" style="rounded=0;whiteSpace=wrap;html=1;" parent="qg5v3E2Mh4NsVr7laVS9-28" vertex="1">
          <mxGeometry x="40" y="10" width="400" height="40" as="geometry" />
        </mxCell>
        <mxCell id="qg5v3E2Mh4NsVr7laVS9-11" value="Best-bin-first approximation for selecting point matches" style="rounded=0;whiteSpace=wrap;html=1;" parent="qg5v3E2Mh4NsVr7laVS9-28" vertex="1">
          <mxGeometry x="40" y="70" width="400" height="40" as="geometry" />
        </mxCell>
        <mxCell id="qg5v3E2Mh4NsVr7laVS9-23" value="" style="edgeStyle=elbowEdgeStyle;rounded=0;orthogonalLoop=1;jettySize=auto;html=1;" parent="qg5v3E2Mh4NsVr7laVS9-28" source="qg5v3E2Mh4NsVr7laVS9-10" target="qg5v3E2Mh4NsVr7laVS9-11" edge="1">
          <mxGeometry relative="1" as="geometry" />
        </mxCell>
        <mxCell id="qg5v3E2Mh4NsVr7laVS9-12" value="Affine Hough transform based evidence accumulation for object models" style="rounded=0;whiteSpace=wrap;html=1;" parent="qg5v3E2Mh4NsVr7laVS9-28" vertex="1">
          <mxGeometry x="40" y="130" width="400" height="40" as="geometry" />
        </mxCell>
        <mxCell id="qg5v3E2Mh4NsVr7laVS9-24" value="" style="edgeStyle=elbowEdgeStyle;rounded=0;orthogonalLoop=1;jettySize=auto;html=1;" parent="qg5v3E2Mh4NsVr7laVS9-28" source="qg5v3E2Mh4NsVr7laVS9-11" target="qg5v3E2Mh4NsVr7laVS9-12" edge="1">
          <mxGeometry relative="1" as="geometry" />
        </mxCell>
        <mxCell id="qg5v3E2Mh4NsVr7laVS9-4" value="Interpolation" style="rounded=0;whiteSpace=wrap;html=1;" parent="qg5v3E2Mh4NsVr7laVS9-30" vertex="1">
          <mxGeometry x="60" y="130" width="400" height="40" as="geometry" />
        </mxCell>
        <mxCell id="qg5v3E2Mh4NsVr7laVS9-5" value="Suppression of interest point responses along edges" style="rounded=0;whiteSpace=wrap;html=1;" parent="qg5v3E2Mh4NsVr7laVS9-30" vertex="1">
          <mxGeometry x="60" y="190" width="400" height="40" as="geometry" />
        </mxCell>
        <mxCell id="qg5v3E2Mh4NsVr7laVS9-18" style="edgeStyle=elbowEdgeStyle;rounded=0;orthogonalLoop=1;jettySize=auto;html=1;exitX=0.5;exitY=1;exitDx=0;exitDy=0;entryX=0.5;entryY=0;entryDx=0;entryDy=0;" parent="qg5v3E2Mh4NsVr7laVS9-30" source="qg5v3E2Mh4NsVr7laVS9-4" target="qg5v3E2Mh4NsVr7laVS9-5" edge="1">
          <mxGeometry relative="1" as="geometry" />
        </mxCell>
        <mxCell id="qg5v3E2Mh4NsVr7laVS9-27" value="&lt;b style=&quot;font-size: 14px;&quot;&gt;Image descriptor&lt;/b&gt;" style="swimlane;horizontal=0;whiteSpace=wrap;html=1;startSize=30;" parent="qg5v3E2Mh4NsVr7laVS9-30" vertex="1">
          <mxGeometry x="20" y="250" width="450" height="180" as="geometry">
            <mxRectangle x="200" y="730" width="40" height="140" as="alternateBounds" />
          </mxGeometry>
        </mxCell>
        <mxCell id="qg5v3E2Mh4NsVr7laVS9-7" value="Scale and orientation normalization" style="rounded=0;whiteSpace=wrap;html=1;" parent="qg5v3E2Mh4NsVr7laVS9-27" vertex="1">
          <mxGeometry x="40" y="10" width="400" height="40" as="geometry" />
        </mxCell>
        <mxCell id="qg5v3E2Mh4NsVr7laVS9-8" value="Weighted position-dependent histogram of local gradient directions" style="rounded=0;whiteSpace=wrap;html=1;" parent="qg5v3E2Mh4NsVr7laVS9-27" vertex="1">
          <mxGeometry x="40" y="70" width="400" height="40" as="geometry" />
        </mxCell>
        <mxCell id="qg5v3E2Mh4NsVr7laVS9-20" value="" style="edgeStyle=elbowEdgeStyle;rounded=0;orthogonalLoop=1;jettySize=auto;html=1;" parent="qg5v3E2Mh4NsVr7laVS9-27" source="qg5v3E2Mh4NsVr7laVS9-7" target="qg5v3E2Mh4NsVr7laVS9-8" edge="1">
          <mxGeometry relative="1" as="geometry" />
        </mxCell>
        <mxCell id="qg5v3E2Mh4NsVr7laVS9-9" value="Contrast normalization" style="rounded=0;whiteSpace=wrap;html=1;" parent="qg5v3E2Mh4NsVr7laVS9-27" vertex="1">
          <mxGeometry x="40" y="130" width="400" height="40" as="geometry" />
        </mxCell>
        <mxCell id="qg5v3E2Mh4NsVr7laVS9-21" value="" style="edgeStyle=elbowEdgeStyle;rounded=0;orthogonalLoop=1;jettySize=auto;html=1;" parent="qg5v3E2Mh4NsVr7laVS9-27" source="qg5v3E2Mh4NsVr7laVS9-8" target="qg5v3E2Mh4NsVr7laVS9-9" edge="1">
          <mxGeometry relative="1" as="geometry" />
        </mxCell>
        <mxCell id="qg5v3E2Mh4NsVr7laVS9-19" value="" style="edgeStyle=elbowEdgeStyle;rounded=0;orthogonalLoop=1;jettySize=auto;html=1;strokeWidth=3;" parent="qg5v3E2Mh4NsVr7laVS9-30" source="qg5v3E2Mh4NsVr7laVS9-5" target="qg5v3E2Mh4NsVr7laVS9-7" edge="1">
          <mxGeometry relative="1" as="geometry" />
        </mxCell>
        <mxCell id="qg5v3E2Mh4NsVr7laVS9-22" value="" style="edgeStyle=elbowEdgeStyle;rounded=0;orthogonalLoop=1;jettySize=auto;html=1;strokeWidth=3;" parent="qg5v3E2Mh4NsVr7laVS9-30" source="qg5v3E2Mh4NsVr7laVS9-9" target="qg5v3E2Mh4NsVr7laVS9-10" edge="1">
          <mxGeometry relative="1" as="geometry" />
        </mxCell>
        <mxCell id="qg5v3E2Mh4NsVr7laVS9-26" value="&lt;font style=&quot;font-weight: 400; font-size: 14px;&quot;&gt;&lt;b&gt;Interest&amp;nbsp;&lt;/b&gt;&lt;/font&gt;&lt;b style=&quot;background-color: initial; font-size: 14px;&quot;&gt;point detection&lt;/b&gt;" style="swimlane;horizontal=0;whiteSpace=wrap;html=1;startSize=30;" parent="qg5v3E2Mh4NsVr7laVS9-30" vertex="1">
          <mxGeometry x="20" y="60" width="450" height="180" as="geometry">
            <mxRectangle x="200" y="730" width="40" height="140" as="alternateBounds" />
          </mxGeometry>
        </mxCell>
        <mxCell id="qg5v3E2Mh4NsVr7laVS9-64" value="&lt;b&gt;Application areas:&lt;/b&gt;Multi-view matching,Object recognition,Object category classification and&amp;nbsp;Robotics" style="shape=ext;double=1;rounded=0;whiteSpace=wrap;html=1;align=left;" parent="qg5v3E2Mh4NsVr7laVS9-30" vertex="1">
          <mxGeometry x="20" y="640" width="450" height="70" as="geometry" />
        </mxCell>
        <mxCell id="qg5v3E2Mh4NsVr7laVS9-67" style="edgeStyle=elbowEdgeStyle;rounded=0;orthogonalLoop=1;jettySize=auto;html=1;exitX=0;exitY=0;exitDx=0;exitDy=0;entryX=1;entryY=0;entryDx=0;entryDy=0;endArrow=none;endFill=0;dashed=1;" parent="1" source="qg5v3E2Mh4NsVr7laVS9-57" target="qg5v3E2Mh4NsVr7laVS9-27" edge="1">
          <mxGeometry relative="1" as="geometry" />
        </mxCell>
        <mxCell id="qg5v3E2Mh4NsVr7laVS9-57" value="Related image descriptors" style="swimlane;fontStyle=0;childLayout=stackLayout;horizontal=1;startSize=20;horizontalStack=0;resizeParent=1;resizeParentMax=0;resizeLast=0;collapsible=1;marginBottom=0;whiteSpace=wrap;html=1;" parent="1" vertex="1">
          <mxGeometry x="590" y="330" width="200" height="110" as="geometry" />
        </mxCell>
        <mxCell id="qg5v3E2Mh4NsVr7laVS9-58" value="Receptive field histograms" style="text;strokeColor=none;fillColor=none;align=left;verticalAlign=middle;spacingLeft=4;spacingRight=4;overflow=hidden;points=[[0,0.5],[1,0.5]];portConstraint=eastwest;rotatable=0;whiteSpace=wrap;html=1;" parent="qg5v3E2Mh4NsVr7laVS9-57" vertex="1">
          <mxGeometry y="20" width="200" height="30" as="geometry" />
        </mxCell>
        <mxCell id="qg5v3E2Mh4NsVr7laVS9-59" value="Histograms of oriented gradients (HOG)" style="text;strokeColor=none;fillColor=none;align=left;verticalAlign=middle;spacingLeft=4;spacingRight=4;overflow=hidden;points=[[0,0.5],[1,0.5]];portConstraint=eastwest;rotatable=0;whiteSpace=wrap;html=1;" parent="qg5v3E2Mh4NsVr7laVS9-57" vertex="1">
          <mxGeometry y="50" width="200" height="30" as="geometry" />
        </mxCell>
        <mxCell id="qg5v3E2Mh4NsVr7laVS9-60" value="Gradient location and orientation histogram (GLOH)" style="text;strokeColor=none;fillColor=none;align=left;verticalAlign=middle;spacingLeft=4;spacingRight=4;overflow=hidden;points=[[0,0.5],[1,0.5]];portConstraint=eastwest;rotatable=0;whiteSpace=wrap;html=1;" parent="qg5v3E2Mh4NsVr7laVS9-57" vertex="1">
          <mxGeometry y="80" width="200" height="30" as="geometry" />
        </mxCell>
        <mxCell id="qg5v3E2Mh4NsVr7laVS9-68" style="edgeStyle=elbowEdgeStyle;rounded=0;orthogonalLoop=1;jettySize=auto;html=1;exitX=0.25;exitY=0;exitDx=0;exitDy=0;" parent="1" source="qg5v3E2Mh4NsVr7laVS9-57" target="qg5v3E2Mh4NsVr7laVS9-57" edge="1">
          <mxGeometry relative="1" as="geometry" />
        </mxCell>
      </root>
    </mxGraphModel>
  </diagram>
</mxfile>
